<svg xmlns="http://www.w3.org/2000/svg" width="267.60547" height="39.93396" viewBox="0 0 267.60547 39.93396">
  <title>资源 124</title>
  <g id="图层_2" data-name="图层 2">
    <g id="图层_1-2" data-name="图层 1">
      <g>
        <path d="M8.89648,25.50244.74121,12.949H3.9043L7.957,19.42334c.88965,1.48267,1.8291,2.916,2.81738,4.34924h.19727c.88965-1.43323,1.73047-2.86658,2.62012-4.34924l3.9043-6.47437h3.01465l-8.15527,12.85L21.252,39.2915H18.04l-4.498-6.96863a48.71584,48.71584,0,0,0-3.01465-4.79407h-.24707c-.98828,1.5321-1.92773,3.16309-2.96582,4.79407l-4.25,6.96863H0Z"/>
        <path d="M43.49023,27.18286H29.4541L25.35156,39.2915H22.38672L34.98926,3.262h3.06445L50.65625,39.2915H47.49316Zm-.791-2.37231-2.17383-6.52393C39.042,14.08569,37.85645,10.28,36.57129,5.93079H36.373c-1.23535,4.34924-2.4707,8.15491-3.9043,12.35583l-2.22363,6.52393Z"/>
        <path d="M55.94238,12.949h2.37207l.3457,4.89282h.09961c1.7793-3.31128,4.39844-5.58484,7.46289-5.58484a5.31168,5.31168,0,0,1,2.66895.59314L68.29785,15.42a5.57138,5.57138,0,0,0-2.42187-.4447c-2.32227,0-5.13965,1.72974-7.06738,6.62268V39.2915H55.94238Z"/>
        <path d="M73.68359,12.949h2.37207l.3457,4.00317H76.501C78.873,14.33276,81.83789,12.257,84.80371,12.257c4.20117,0,6.32617,2.12524,7.26563,5.33777,2.96484-3.21252,5.832-5.33777,8.89551-5.33777,5.28906,0,7.9082,3.41028,7.9082,10.18127V39.2915h-2.86719V22.83362c0-5.486-1.82812-8.00659-5.68359-8.00659-2.37207,0-4.79395,1.58154-7.61035,4.74463V39.2915H89.84473V22.83362c0-5.486-1.7793-8.00659-5.68359-8.00659-2.32324,0-4.84375,1.58154-7.61133,4.74463V39.2915H73.68359Z"/>
        <path d="M126.90723,34.54688l1.8291-2.07581a13.8713,13.8713,0,0,0,10.42773,4.79407c5.33789,0,8.64941-2.81714,8.64941-6.91919,0-4.34924-2.81738-5.73315-6.376-7.3147l-5.38672-2.37231c-3.21289-1.43323-7.31445-3.70679-7.31445-8.995,0-5.33777,4.54688-9.04443,10.6748-9.04443a13.7616,13.7616,0,0,1,10.18164,4.34924l-1.68066,1.92749a11.56181,11.56181,0,0,0-8.501-3.60791c-4.5957,0-7.66016,2.42175-7.66016,6.12842,0,4.10217,3.50879,5.63428,6.12793,6.771l5.3877,2.37231c4.10156,1.82874,7.56152,4.10217,7.56152,9.58813,0,5.5354-4.59668,9.78577-11.66406,9.78577A16.0351,16.0351,0,0,1,126.90723,34.54688Z"/>
        <path d="M157.44922,31.77917V15.37061h-4.10254V13.196l4.20117-.24707.3457-7.61121h2.42188V12.949H167.877v2.42163h-7.56152v16.6062c0,3.3114.88965,5.48608,4.39844,5.48608a9.21213,9.21213,0,0,0,3.21289-.74146l.69238,2.22412a14.90526,14.90526,0,0,1-4.39941.9884C159.03027,39.934,157.44922,36.67212,157.44922,31.77917Z"/>
        <path d="M173.80664,29.80225V12.949h2.86621V29.4563c0,5.38708,1.68066,7.90771,5.7334,7.90771,3.06445,0,5.23926-1.58154,8.2041-5.14V12.949h2.86719V39.2915h-2.42187l-.24707-4.34924h-.14844c-2.57031,2.96545-5.23926,4.9917-8.89648,4.9917C176.27832,39.934,173.80664,36.57324,173.80664,29.80225Z"/>
        <path d="M201.18457,26.1449c0-8.50073,5.43652-13.88794,11.66406-13.88794,3.16309,0,5.28809,1.18616,7.8584,3.21252l-.19824-4.74463V0H223.376V39.2915h-2.373l-.3457-3.3114h-.09863a12.20848,12.20848,0,0,1-8.45117,3.95386C205.48438,39.934,201.18457,34.9917,201.18457,26.1449Zm19.32422,7.11694V18.03955c-2.66895-2.37231-4.89258-3.262-7.36328-3.262-5.042,0-8.89648,4.89294-8.89648,11.36731,0,6.82043,3.01465,11.26855,8.35254,11.26855C215.41895,37.41345,217.88965,35.9801,220.50879,33.26184Z"/>
        <path d="M232.31836,4.49756a2.29579,2.29579,0,0,1,2.42188-2.37231,2.32492,2.32492,0,1,1-2.42187,2.37231Zm.93945,8.45142H236.124V39.2915h-2.86621Z"/>
        <path d="M243.7832,26.1449c0-8.79724,5.53516-13.88794,11.91113-13.88794s11.91113,5.0907,11.91113,13.88794c0,8.74792-5.53516,13.78906-11.91113,13.78906S243.7832,34.89282,243.7832,26.1449Zm20.85645,0c0-6.72156-3.80566-11.36731-8.94531-11.36731s-8.89648,4.64575-8.89648,11.36731,3.75684,11.318,8.89648,11.318S264.63965,32.86646,264.63965,26.1449Z"/>
      </g>
    </g>
  </g>
</svg>
